<?xml version="1.0" encoding="UTF-8" standalone="no"?> <svg width="51" height="52" viewBox="0 0 51 52" fill="none" xmlns="http://www.w3.org/2000/svg">
<path d="M40.2665 24.873C40.2665 22.1166 39.2955 20.2076 38.4626 18.7218C38.3768 18.5797 38.2914 18.4392 38.2069 18.3001C37.1991 16.6421 36.3144 15.1866 36.3144 13.4916C36.3144 11.4413 37.8395 9.53279 39.9877 9.53279C40.0502 9.53279 40.1107 9.53792 40.1712 9.54303C40.2044 9.54585 40.2376 9.54866 40.2711 9.55062C36.3793 5.91524 31.1943 3.69565 25.4994 3.69565C17.8573 3.69565 11.1339 7.69346 7.2225 13.7487C7.73572 13.7644 8.21938 13.7755 8.63021 13.7755C10.9183 13.7755 14.46 13.4924 14.46 13.4924C15.6392 13.4215 15.7782 15.1874 14.6003 15.3296C14.6003 15.3296 13.4152 15.4718 12.0966 15.5422L20.0625 39.701L24.8496 25.0623L21.4415 15.5414C20.2636 15.4709 19.1476 15.3288 19.1476 15.3288C17.9689 15.2583 18.107 13.4207 19.2858 13.4916C19.2858 13.4916 22.8983 13.7746 25.0478 13.7746C27.3354 13.7746 30.8775 13.4916 30.8775 13.4916C32.0576 13.4207 32.1962 15.1866 31.0178 15.3288C31.0178 15.3288 29.8303 15.4709 28.5142 15.5414L36.4193 39.5172L38.6012 32.0831C38.6596 31.8927 38.7171 31.7056 38.7736 31.5218C39.6329 28.7259 40.2665 26.6645 40.2665 24.873Z" fill="url(#paint0_linear_801_1247)"/>
<path d="M3.62458 25.9985C3.62458 34.8268 8.65644 42.4562 15.953 46.0716L5.51844 16.9215C4.3047 19.6954 3.62458 22.765 3.62458 25.9985Z" fill="url(#paint1_linear_801_1247)"/>
<path d="M19.32 47.3949L25.8832 27.9495L32.6078 46.732C32.6515 46.8423 32.7048 46.9437 32.7635 47.0392C30.4896 47.8545 28.0467 48.3035 25.4994 48.3035C23.352 48.3035 21.2796 47.9822 19.32 47.3949Z" fill="url(#paint2_linear_801_1247)"/>
<path d="M44.6936 15.2978C44.7877 16.0082 44.841 16.7709 44.841 17.5912C44.841 19.8545 44.4264 22.3988 43.1777 25.5801L36.4959 45.2776C42.9991 41.4109 47.3734 34.2271 47.3734 25.9989C47.3738 22.1212 46.4023 18.4748 44.6936 15.2978Z" fill="url(#paint3_linear_801_1247)"/>
<path d="M0 25.9985C0 11.6628 11.4394 0 25.4994 0C39.559 0 50.9996 11.6628 51 25.9985C51 40.3359 39.559 51.9983 25.4994 51.9983C11.4394 51.9983 0 40.3359 0 25.9985ZM1.1692 25.9985C1.1692 39.6777 12.0841 50.8066 25.4994 50.8066C38.9142 50.8066 49.8283 39.6777 49.8283 25.9985C49.8283 12.3202 38.9142 1.19213 25.4994 1.19213C12.0837 1.19213 1.1692 12.3202 1.1692 25.9985Z" fill="url(#paint4_linear_801_1247)"/>
<defs>
<linearGradient id="paint0_linear_801_1247" x1="25.5" y1="0" x2="25.5" y2="51.9983" gradientUnits="userSpaceOnUse">
<stop stop-color="#88C6FF"/>
<stop offset="1" stop-color="#0085FF"/>
</linearGradient>
<linearGradient id="paint1_linear_801_1247" x1="25.5" y1="0" x2="25.5" y2="51.9983" gradientUnits="userSpaceOnUse">
<stop stop-color="#88C6FF"/>
<stop offset="1" stop-color="#0085FF"/>
</linearGradient>
<linearGradient id="paint2_linear_801_1247" x1="25.5" y1="0" x2="25.5" y2="51.9983" gradientUnits="userSpaceOnUse">
<stop stop-color="#88C6FF"/>
<stop offset="1" stop-color="#0085FF"/>
</linearGradient>
<linearGradient id="paint3_linear_801_1247" x1="25.5" y1="0" x2="25.5" y2="51.9983" gradientUnits="userSpaceOnUse">
<stop stop-color="#88C6FF"/>
<stop offset="1" stop-color="#0085FF"/>
</linearGradient>
<linearGradient id="paint4_linear_801_1247" x1="25.5" y1="0" x2="25.5" y2="51.9983" gradientUnits="userSpaceOnUse">
<stop stop-color="#88C6FF"/>
<stop offset="1" stop-color="#0085FF"/>
</linearGradient>
</defs>
</svg>
